<svg width="75" height="89" viewBox="0 0 75 89" fill="none" xmlns="http://www.w3.org/2000/svg">
<g clip-path="url(#clip0_48_25)">
<path d="M39.4039 41.9988H45.3721L52.0034 32.97L43.5867 24.2983V6.54688" stroke="#FF6100" stroke-width="1.5303"/>
<path d="M43.5867 24.2984L55.574 14.0964" stroke="#FF6100" stroke-width="1.5303"/>
<path d="M51.9015 32.9701H64.5009V26.3898" stroke="#FF6100" stroke-width="1.5303"/>
<path d="M64.5009 32.9701L69.9079 38.3772" stroke="#FF6100" stroke-width="1.5303"/>
<path d="M45.4741 42.1008L51.4933 47.8139H61.2362L67.9695 55.6695" stroke="#FF6100" stroke-width="1.5303"/>
<path d="M39.71 51.8438H45.27L51.7483 58.475V69.7483L43.3827 78.879" stroke="#FF6100" stroke-width="1.5303"/>
<path d="M51.7483 69.6462L60.8281 78.9301" stroke="#FF6100" stroke-width="1.5303"/>
<path d="M51.7483 58.4241L59.9609 67.5549H69.2957" stroke="#FF6100" stroke-width="1.5303"/>
<circle cx="43.5867" cy="5.78176" r="3.5707" fill="#FF6100"/>
<circle cx="55.6251" cy="14.1474" r="3.5707" fill="#FF6100"/>
<circle cx="64.5009" cy="24.2473" r="3.5707" fill="#FF6100"/>
<circle cx="70.8262" cy="38.4281" r="3.5707" fill="#FF6100"/>
<circle cx="68.9898" cy="56.3837" r="3.5707" fill="#FF6100"/>
<circle cx="69.908" cy="67.6059" r="3.5707" fill="#FF6100"/>
<circle cx="60.8282" cy="78.9301" r="3.5707" fill="#FF6100"/>
<circle cx="43.2807" cy="78.9301" r="3.5707" fill="#FF6100"/>
<path d="M26.5494 82.0927L28.8958 84.2351L32.0074 87.0917M2.06459 58.016L3.95196 61.5357L5.99235 65.1574L8.13477 68.5751L10.0221 71.4826L11.8585 73.9821L14.1029 76.6856L16.2964 79.2871L18.3368 81.4806L20.3772 83.674L21.9075 85.2043" stroke="#00349A" stroke-width="2.75454" stroke-linecap="round"/>
<path d="M22.8257 78.318L20.0202 75.1043L17.9798 72.6558L16.0414 70.1053L14.256 67.8099L11.8586 64.1372L10.0222 61.1786L8.3899 58.169L6.75758 54.8534L5.12526 51.1296L3.74799 47.3039L2.85761 44.3494C2.70329 43.8374 2.58947 43.314 2.51721 42.7841L2.16668 40.2135V37.3059V35.1234C2.16668 34.6407 2.20095 34.1585 2.26922 33.6806L2.37072 32.9701" stroke="#00349A" stroke-width="2.75454" stroke-linecap="round"/>
<path d="M4.15598 15.5247L5.53325 13.7904L7.62466 11.699L9.8691 9.70959L12.1135 7.92424L13.1337 7.26111" stroke="#00349A" stroke-width="2.75454" stroke-linecap="round"/>
<path d="M26.6515 19.0953L24.5601 19.8605L23.985 20.0905C23.5189 20.277 23.0671 20.4976 22.6334 20.7506L22.0606 21.0847L20.3773 22.36L18.6429 23.9413L17.2146 25.6246L15.9904 27.41L14.9702 29.3483L14.5246 30.3584C14.3119 30.8405 14.1369 31.3384 14.0011 31.8476L13.5929 33.3781L13.1849 35.7246L13.1162 36.4339C13.0601 37.0141 13.0537 37.5982 13.0974 38.1796L13.1849 39.3463L13.5929 41.8458L14.2051 43.9372L14.8172 45.9266L15.8374 48.222L16.9086 50.5685L17.9288 52.7109L19.102 54.8023L20.3773 57.0468L21.7035 59.0872L23.3358 61.6377" stroke="#00349A" stroke-width="2.75454" stroke-linecap="round"/>
<path fill-rule="evenodd" clip-rule="evenodd" d="M14.3784 54.8804C13.9989 54.2212 13.1568 53.9945 12.4976 54.374C11.8385 54.7535 11.6117 55.5956 11.9913 56.2548L13.9297 59.6214L13.9394 59.6384L13.9497 59.6551L16.1431 63.2258L16.1623 63.257L16.1831 63.2872L18.6826 66.9089L18.7058 66.9424L18.7308 66.9745L21.2813 70.2392L21.2971 70.2593L21.3135 70.2789L24.3231 73.8496L24.3485 73.8796L24.3754 73.9082L27.028 76.7137L27.0491 76.7361L27.0712 76.7575L30.1828 79.7671L30.1944 79.7782L30.2062 79.7891L32.8548 82.234L35.2994 84.5258L35.3557 84.5786L35.4175 84.6247L38.1797 86.6867V83.2493L37.127 82.4635L34.7348 80.2208L34.7349 80.2208L34.7271 80.2136L32.0864 77.776L29.0084 74.799L26.404 72.0443L23.4362 68.5232L20.9265 65.3108L18.471 61.7528L16.307 58.23L14.3784 54.8804Z" fill="#00349A"/>
<path fill-rule="evenodd" clip-rule="evenodd" d="M27.6007 64.9309C27.1094 64.3502 26.2404 64.2778 25.6597 64.7691C25.079 65.2605 25.0066 66.1295 25.498 66.7102L27.7424 69.3627C27.7547 69.3772 27.7673 69.3915 27.7802 69.4055L30.1267 71.956C30.1362 71.9664 30.1459 71.9766 30.1557 71.9867L32.4512 74.3331L32.4618 74.3439L33.8901 75.7722L35.1143 76.9964C35.154 77.0361 35.1961 77.0733 35.2403 77.1079L36.8687 78.38L38.1796 79.4197V75.9087L37.0025 74.9891L35.8379 73.8244L34.4149 72.4015L32.1395 70.0755L29.8267 67.5616L27.6007 64.9309Z" fill="#00349A"/>
<path fill-rule="evenodd" clip-rule="evenodd" d="M38.1798 23.455L36.435 22.9288L36.372 22.9098L36.3074 22.8968L35.0026 22.6359C34.2549 22.4863 33.4942 22.411 32.7317 22.411H32.0695C31.5215 22.411 30.9743 22.4499 30.4319 22.5274L30.0957 22.5754C29.2745 22.6927 28.4682 22.898 27.6908 23.1876L26.9543 23.462C26.324 23.6968 25.7153 23.9861 25.1353 24.3266L23.5569 25.253L23.4746 25.3013L23.3998 25.3604L22.2936 26.2351C21.4747 26.8826 20.7471 27.6379 20.1307 28.4804L20.0528 28.5869C19.5744 29.2406 19.166 29.9428 18.8342 30.6818L18.5518 31.3108C18.2497 31.9835 18.0126 32.6836 17.8437 33.4014L17.4553 35.0521L17.4366 35.1315L17.4274 35.2126L17.2894 36.4316C17.163 37.5489 17.1999 38.6788 17.3991 39.7854L17.5935 40.8656L17.6038 40.9225L17.6188 40.9785L18.1799 43.0699L18.1979 43.1371L18.2227 43.2022L19.1919 45.7527L19.2039 45.7844L19.2175 45.8155L20.2887 48.264L20.3008 48.2915L20.314 48.3185L21.6403 51.0221L21.6571 51.0564L21.6758 51.0897L23.3081 53.9973L23.3286 54.0337L23.3512 54.0688L25.2896 57.0784L25.3029 57.099L25.3169 57.1192L26.9492 59.4656L26.9505 59.4675L28.8379 62.171L28.8823 62.2347L28.9337 62.293L30.7982 64.4095L32.562 66.6269L32.6107 66.6881L32.666 66.7434L32.8549 66.9323L32.9038 66.9812L32.9533 67.0307L33.0542 67.1316L33.0798 67.1572L33.1056 67.1829L33.1575 67.2349L33.21 67.2873L33.2232 67.3005L33.2364 67.3138L33.2497 67.327L33.263 67.3403L33.48 67.5574L33.7042 67.7816L33.7185 67.7958L33.7327 67.8101L33.7613 67.8387L33.8188 67.8961L33.8765 67.9539L33.8911 67.9684L33.9056 67.9829L33.9347 68.012L34.0519 68.1292L34.1702 68.2476L34.2297 68.3071L34.2895 68.3669L34.3045 68.3819L34.3195 68.3969L34.3495 68.4269L34.4097 68.4871L34.5307 68.6081L34.5459 68.6232L34.561 68.6384L34.5762 68.6536L34.5914 68.6688L34.6522 68.7296L34.7132 68.7906L34.7285 68.8058L34.7437 68.8211L34.759 68.8364L34.7743 68.8516L34.8354 68.9128L34.8966 68.974L34.9119 68.9893L34.9273 69.0046L34.9579 69.0353L34.9885 69.0659L35.0192 69.0966L35.0805 69.1579L35.0958 69.1732L35.1112 69.1885L35.1418 69.2192L35.2644 69.3418L35.295 69.3724C35.3557 69.4331 35.2979 69.3752 35.2979 69.3752L35.3256 69.403L35.3868 69.4641L35.5088 69.5862L35.524 69.6014L35.5392 69.6166L35.5545 69.6318L35.5697 69.647L35.6 69.6774L35.6152 69.6926L35.6304 69.7077L35.6909 69.7683L35.7061 69.7834L35.7212 69.7985L35.7513 69.8287L35.8716 69.949L35.9015 69.9789L35.9314 70.0088L35.991 70.0683L36.1093 70.1867L36.1681 70.2455L36.1974 70.2747L36.2266 70.3039L36.3425 70.4199L36.7911 70.8684L37.0042 71.0816L37.0562 71.1335L37.1076 71.1849L37.1203 71.1977L37.133 71.2104L37.1457 71.2231L37.1584 71.2357L37.171 71.2483L37.1836 71.2609L37.2086 71.2859L37.2334 71.3108L37.2582 71.3355L37.2705 71.3478L37.2827 71.3601L37.3071 71.3845L37.3313 71.4087L37.3434 71.4208L37.3554 71.4328L37.3674 71.4447L37.3793 71.4567L37.3912 71.4686L37.403 71.4804L37.5865 71.6639L37.6306 71.7079L37.6738 71.7512L37.6845 71.7619L37.6952 71.7725L37.7163 71.7937L37.7373 71.8146L37.7477 71.825L37.758 71.8354L37.7683 71.8457L37.7785 71.8559L37.7887 71.8661L37.7989 71.8762L37.8389 71.9162L37.8781 71.9554L37.8877 71.9651L37.8973 71.9747L37.9164 71.9937L37.9903 72.0677L38.0259 72.1033L38.0606 72.1379L38.1798 72.2571V68.3616L34.669 64.8509L32.9324 62.6677L32.9108 62.6406L32.888 62.6146L31.052 60.5305L29.2104 57.8926L29.2091 57.8907L27.5921 55.5663L25.6896 52.6124L24.0964 49.7746L22.8003 47.1324L21.7547 44.7425L20.8223 42.2888L20.2942 40.3206L20.1101 39.2975C19.9583 38.454 19.9301 37.593 20.0265 36.7415L20.1553 35.6036L20.525 34.0323C20.6537 33.4853 20.8344 32.9517 21.0646 32.439L21.347 31.81C21.5999 31.2468 21.9112 30.7117 22.2757 30.2135L22.3536 30.107C22.8235 29.4649 23.378 28.8893 24.0021 28.3958L25.0335 27.5803L26.5296 26.7021C26.9717 26.4427 27.4355 26.2222 27.9159 26.0432L28.6525 25.7688C29.2449 25.5481 29.8594 25.3917 30.4853 25.3023L30.8215 25.2542C31.2348 25.1952 31.6519 25.1655 32.0695 25.1655H32.7317C33.3128 25.1655 33.8925 25.223 34.4624 25.3369L35.7027 25.585L38.1798 26.332V23.455Z" fill="#00349A"/>
<path fill-rule="evenodd" clip-rule="evenodd" d="M27.9996 45.1872C27.6757 44.4989 26.8552 44.2035 26.167 44.5274C25.4787 44.8513 25.1833 45.6718 25.5072 46.36L26.3234 48.0944L26.3521 48.1555L26.3867 48.2135L28.1196 51.1186L28.1211 51.121L30.1076 54.4828L30.125 54.5123L30.1438 54.5408L31.8271 57.0913L31.8625 57.1449L31.9027 57.195L34.6063 60.5617L34.6355 60.5981L34.6671 60.6324C35.613 61.6593 37.4066 63.6042 38.1796 64.4321V60.3783C37.6462 59.8004 37.1208 59.2305 36.7248 58.8006L34.0907 55.5204L32.4616 53.052L30.4896 49.7148L30.4896 49.7148L30.4867 49.71L28.787 46.8604L27.9996 45.1872Z" fill="#00349A"/>
<path fill-rule="evenodd" clip-rule="evenodd" d="M31.5718 27.9202C31.2872 27.9202 31.003 27.9404 30.7213 27.9806C30.0813 28.072 29.4603 28.266 28.8821 28.5551L28.4329 28.7797L28.4127 28.7898L28.3929 28.8006L27.1687 29.4637L27.0884 29.5072L27.0145 29.5609L26.6113 29.8541C26.0482 30.2636 25.5341 30.7365 25.079 31.2635L25.0458 31.3018C24.7634 31.6289 24.5065 31.9772 24.2774 32.3437C23.8986 32.9498 23.5984 33.6016 23.3841 34.2835L23.3458 34.4055C23.149 35.0317 23.0181 35.6767 22.9553 36.33L22.8616 37.3047C22.7968 37.9786 22.8186 38.658 22.9264 39.3263C23.0236 39.929 23.19 40.5184 23.4225 41.0829L23.4905 41.2481C23.7801 41.9514 24.5851 42.2868 25.2884 41.9972C25.9918 41.7076 26.3272 40.9026 26.0376 40.1993L25.9695 40.0341C25.8178 39.6657 25.7092 39.281 25.6458 38.8877C25.5754 38.4515 25.5612 38.0081 25.6035 37.5683L25.6972 36.5937C25.7417 36.1312 25.8343 35.6746 25.9736 35.2314L26.012 35.1094C26.1562 34.6504 26.3583 34.2116 26.6133 33.8036C26.7675 33.5569 26.9404 33.3224 27.1305 33.1023L27.1637 33.0639C27.4808 32.6967 27.8391 32.3672 28.2314 32.0818L28.5609 31.8422L29.685 31.2333L30.1139 31.0189C30.4273 30.8622 30.7639 30.757 31.1108 30.7075C31.2635 30.6857 31.4176 30.6747 31.5718 30.6747H32.4603L33.5238 30.7633C33.9059 30.7952 34.2837 30.8661 34.6513 30.975L35.2627 31.1562L35.5457 31.2775C35.6556 31.3246 35.7565 31.3872 35.8467 31.4641L38.1796 33.4528V29.8332L37.6337 29.3679C37.3319 29.1106 36.9942 28.9014 36.6308 28.7457L36.2737 28.5926L36.1997 28.5609L36.1224 28.538L35.4338 28.334C34.8856 28.1716 34.3223 28.0658 33.7525 28.0183L32.6319 27.9249L32.5748 27.9202H32.5175H31.5718Z" fill="#00349A"/>
<path fill-rule="evenodd" clip-rule="evenodd" d="M33.005 33.4029C32.786 33.383 32.5656 33.3822 32.3463 33.4004L31.9441 33.434L31.8777 33.4395L31.8121 33.4514L31.251 33.5534L31.1705 33.5681L31.0923 33.5921L30.7608 33.6941C30.2747 33.8437 29.8464 34.1393 29.5341 34.5408L29.39 34.7261L29.033 35.1851L28.9867 35.2447L28.9471 35.3089L28.7267 35.6671C28.4873 36.0561 28.3453 36.4972 28.3127 36.9528L28.2872 37.3099L28.2809 37.3993L28.2861 37.4889L28.3116 37.9224L28.3153 37.9853C28.3357 38.3324 28.3942 38.6762 28.4898 39.0106L28.5918 39.3677L28.6158 39.4516L28.6502 39.5318L29.0956 40.5713L29.5937 41.9161L29.6109 41.9626L29.6314 42.0077L30.6516 44.2521L30.6622 44.2753L30.6736 44.2981L32.4079 47.7668L32.4372 47.8253L32.4719 47.8808L34.0022 50.3293L34.0084 50.3393L34.0149 50.3492L35.9022 53.2568L35.9352 53.3076L35.9726 53.3554L38.1797 56.1777V51.7063L38.1797 51.7062L36.3317 48.8594L34.8424 46.4764L33.1487 43.0891L32.1596 40.913L31.6667 39.5822L31.6547 39.5497L31.6411 39.518L31.2164 38.527L31.1383 38.2539C31.0982 38.1135 31.0737 37.9692 31.0651 37.8236L31.0614 37.7607L31.0412 37.4166L31.0603 37.149C31.0613 37.1355 31.0655 37.1224 31.0726 37.1108L31.2535 36.8168L31.5643 36.4172L31.6546 36.3011L31.8242 36.2489L32.2393 36.1734L32.5751 36.1455C32.6352 36.1405 32.6956 36.1407 32.7557 36.1461C32.8559 36.1553 32.9543 36.1789 33.0478 36.2163L33.1123 36.2421C33.1279 36.2483 33.1431 36.2557 33.1577 36.2642C33.2226 36.3021 33.2732 36.3602 33.3018 36.4297L34.5087 39.3607L34.5124 39.3697L34.5163 39.3788C35.669 42.0685 38.0561 47.6369 38.121 47.7668L38.1797 47.7375V40.9333C37.7641 39.9642 37.366 39.0354 37.052 38.3028L35.8489 35.3809C35.5903 34.7528 35.1323 34.2272 34.5456 33.8849C34.4139 33.8081 34.2768 33.7411 34.1353 33.6845L34.0708 33.6587C33.7298 33.5223 33.3708 33.4362 33.005 33.4029Z" fill="#00349A"/>
<path fill-rule="evenodd" clip-rule="evenodd" d="M38.1796 0.757353L37.1121 0.59451L37.1087 0.594002L35.8208 0.400814C35.2522 0.315526 34.6781 0.272705 34.1032 0.272705H32.0075H31.9609L31.9143 0.275859L28.9047 0.479899L28.885 0.48124L28.8652 0.483149L26.458 0.716107C25.8872 0.771345 25.3213 0.868908 24.765 1.00799L22.6447 1.53807L22.6172 1.54493L22.5901 1.55291L19.9886 2.31806L19.9084 2.34164L19.8317 2.37474L17.2302 3.49696C16.5317 3.79824 16.2098 4.60867 16.5111 5.30711C16.8124 6.00554 17.6228 6.32749 18.3212 6.02621L20.846 4.93709L23.3402 4.2035L25.4331 3.68029C25.857 3.57429 26.2883 3.49993 26.7233 3.45784L29.1108 3.22679L32.0541 3.02724H34.1032C34.5413 3.02724 34.9789 3.05988 35.4122 3.12488L36.6968 3.31755L36.7001 3.31807L38.1796 3.54376V0.757353Z" fill="#00349A"/>
<path fill-rule="evenodd" clip-rule="evenodd" d="M38.1798 12.1594L37.7855 12.0557L37.283 11.9068C36.6376 11.7156 35.9769 11.581 35.3082 11.5046L34.4083 11.4017L34.3303 11.3928H34.2519H32.4155H30.0181H29.9494L29.881 11.3997L27.8406 11.6037L27.7548 11.6123L27.6708 11.6315L25.8854 12.0396L25.7918 12.061L25.702 12.0952L23.5596 12.9113L21.4172 13.7275L21.3464 13.7545L21.279 13.789L19.2896 14.8092L19.2108 14.8496L19.1378 14.8998L16.4844 16.724C16.0225 17.0416 15.5843 17.3922 15.1732 17.7732L13.6258 19.2074L13.5807 19.2492L13.5396 19.2948L11.6522 21.3862L11.5873 21.4581L11.5331 21.5384L10.1559 23.5788L10.1384 23.6046L10.1222 23.6312L9.48375 24.6759C9.11845 25.2737 8.80815 25.9034 8.55667 26.5572L7.86951 28.3438L7.8429 28.413L7.82387 28.4847L6.9567 31.7493L6.94639 31.7881L6.93836 31.8275L6.57829 33.5918C6.46492 34.1473 6.3925 34.7104 6.36162 35.2765L6.24946 37.3329L6.24605 37.3954L6.24832 37.458L6.32181 39.4788C6.34338 40.0721 6.4107 40.6614 6.52119 41.2421C6.60518 41.6834 6.69526 42.1609 6.76417 42.5346C6.79873 42.7221 6.8273 42.8798 6.84696 42.9927C6.85605 43.045 6.86243 43.083 6.8664 43.1079C6.8687 43.1316 6.87093 43.1487 6.87198 43.1566L6.87213 43.1578C6.87626 43.1894 6.88077 43.2165 6.8839 43.2344C6.89029 43.2711 6.8976 43.3072 6.90379 43.3367C6.91658 43.3977 6.93324 43.4713 6.95132 43.5488C6.98795 43.7058 7.03751 43.9096 7.09109 44.1262C7.19863 44.5611 7.3272 45.0677 7.41279 45.4015L7.4249 45.4487L7.44031 45.4949L8.05243 47.3313L8.06834 47.379L8.0877 47.4255L8.84263 49.2373L9.64952 51.4059C9.91479 52.1187 10.7077 52.4816 11.4206 52.2164C12.1335 51.9511 12.4964 51.1581 12.2311 50.4453L11.415 48.2518L11.4057 48.2269L11.3955 48.2024L10.6497 46.4125L10.0689 44.6702C9.98483 44.3417 9.8652 43.8699 9.76509 43.465C9.7124 43.252 9.66631 43.0622 9.63387 42.9231C9.61955 42.8617 9.60919 42.8157 9.60247 42.7845L9.60023 42.7667C9.59658 42.7388 9.59238 42.711 9.58878 42.688C9.58134 42.6406 9.57155 42.5827 9.56067 42.5202C9.53863 42.3936 9.5081 42.2253 9.47305 42.0351C9.40272 41.6537 9.3115 41.1703 9.22718 40.7272C9.14225 40.2808 9.09094 39.8302 9.07453 39.3787L9.00332 37.4204L9.11207 35.4266C9.13561 34.9951 9.1908 34.566 9.2772 34.1426L9.62923 32.4176L10.4671 29.2635L11.1276 27.546C11.3193 27.0477 11.5557 26.5678 11.8342 26.1123L12.4564 25.0941L13.762 23.1598L15.5433 21.1859L17.0457 19.7935C17.359 19.5031 17.6929 19.2359 18.0449 18.9939L20.6254 17.2198L22.4686 16.2746L24.5402 15.4854L26.5928 14.7034L28.2005 14.336L30.0868 14.1474H32.4155H34.1734L34.9954 14.2413C35.5051 14.2995 36.0086 14.4021 36.5004 14.5478L37.0232 14.7027L37.0435 14.7087L37.064 14.7141L38.1798 15.0078V12.1594Z" fill="#00349A"/>
<path fill-rule="evenodd" clip-rule="evenodd" d="M38.1797 6.41588L37.1694 6.30151L35.9531 6.14947L35.9324 6.14689L35.9116 6.14493L33.2081 5.88988L33.1436 5.88379H33.0788H30.8029C30.21 5.88379 29.6179 5.92933 29.032 6.02002L25.5227 6.56312L25.4432 6.57542L25.3658 6.59687L22.0501 7.51505L21.9768 7.53535L21.9062 7.56361L19.0825 8.69309C18.3264 8.99553 17.6043 9.37688 16.9282 9.83082L14.2535 11.6267L14.2084 11.657L14.1658 11.6907L11.4623 13.8331L11.4056 13.8781L11.3539 13.9287L8.85443 16.3772L8.79257 16.4378L8.73879 16.5056L6.59637 19.2092L6.54466 19.2744L6.50119 19.3454L4.97089 21.8449L4.95095 21.8775L4.93285 21.9111L3.50457 24.5636L3.46528 24.6366L3.43502 24.7137L2.41482 27.3153C2.13712 28.0234 2.48605 28.8226 3.19419 29.1003C3.90233 29.378 4.70152 29.029 4.97922 28.3209L5.96916 25.7966L7.34003 23.2506L8.80693 20.8547L10.8439 18.2843L13.2298 15.947L15.8341 13.8833L18.4637 12.1177C18.9789 11.7717 19.5292 11.4811 20.1055 11.2506L22.8586 10.1494L26.0234 9.27296L29.4533 8.74215C29.8998 8.67304 30.3511 8.63833 30.8029 8.63833H33.0139L35.6322 8.88533L36.8357 9.03577L36.8436 9.03677L36.8516 9.03767L38.1797 9.18801V6.41588Z" fill="#00349A"/>
<path fill-rule="evenodd" clip-rule="evenodd" d="M38.1795 17.7372L38.1057 17.72L37.1554 17.3874L37.1024 17.3688L37.048 17.3546L36.6089 17.2401C36.0542 17.0954 35.4895 16.9921 34.9196 16.931L34.2456 16.8588L34.1724 16.851H34.0989H33.1297H32.3645C31.6039 16.851 30.9873 17.4676 30.9873 18.2282C30.9873 18.9889 31.6039 19.6055 32.3645 19.6055H33.1297H34.0253L34.6261 19.6699C35.0605 19.7164 35.4908 19.7951 35.9135 19.9054L36.2984 20.0058L37.2656 20.3443L37.3355 20.3688L37.4076 20.3856L38.1795 20.5657V17.7372Z" fill="#00349A"/>
</g>
<defs>
<clipPath id="clip0_48_25">
<rect width="73.7604" height="88.2472" fill="white" transform="translate(0.636475 0.272705)"/>
</clipPath>
</defs>
</svg>
