<svg width="1024" height="1024" viewBox="0 0 1024 1024" fill="none" xmlns="http://www.w3.org/2000/svg">
<g id="logo_ai_trace">
<g id="digital">
<path id="digital1" d="M527 495.5C515 467.5 512 460.5 508.5 452.5L502.939 441.03C501.349 437.751 498.819 435.02 495.672 433.184V433.184C494.892 432.728 494.079 432.332 493.24 431.996L492.711 431.784C490.582 430.933 488.34 430.395 486.056 430.187V430.187C484.688 430.063 483.312 430.057 481.943 430.171L478 430.5L472.5 431.5L469.25 432.5V432.5C467.135 433.151 465.271 434.437 463.912 436.184L462.5 438L459 442.5L456.839 446.012C455.631 447.975 454.914 450.201 454.75 452.5V452.5L454.5 456L454.75 460.25L454.786 460.866C454.928 463.281 455.335 465.674 456 468V468L457 471.5L461.5 482L466.5 495.5L476.5 517.5L487 537L501.5 563.5L510.5 579L530 609" stroke="#00349A" stroke-width="27" stroke-linecap="round"/>
<path id="digital2" d="M532 693.5C530 691.5 525.167 687.167 513.5 674.5L487 641.5L470.5 616.5L451 583.5L434 555L426 538" stroke="#00349A" stroke-width="27" stroke-linecap="round"/>
<path id="digital3" d="M532 394.5C528.002 391.092 525.448 388.901 523.82 387.495C523.444 387.17 517.957 383.696 517.5 383.5V383.5L514 382L507.25 380V380C502.762 378.67 498.149 377.804 493.484 377.415L482.5 376.5H473.23C471.079 376.5 468.931 376.653 466.802 376.957V376.957C461.966 377.648 457.272 379.114 452.902 381.299L448.5 383.5L436.5 390L432.547 392.875C427.865 396.28 423.589 400.213 419.804 404.595L419.48 404.971C417.163 407.653 415.057 410.509 413.179 413.514V413.514C410.072 418.485 407.611 423.83 405.853 429.421L405.478 430.617C403.83 435.858 402.735 441.257 402.209 446.725L401.29 456.279C400.766 461.737 400.942 467.24 401.815 472.653V472.653C402.602 477.535 403.951 482.309 405.833 486.881L406.5 488.5" stroke="#00349A" stroke-width="27" stroke-linecap="round"/>
<path id="digital4" d="M530 771C529.6 770.6 512.667 753.167 493.5 734L476 712L457.5 691L439 664.5L423 641.5L404 612L388 583.5L375 557L364.5 533L355 508L349.5 487.5L347.594 476.913C345.874 467.355 345.555 457.598 346.647 447.949L348 436L351.807 419.82C353.266 413.621 355.313 407.575 357.922 401.765L360.69 395.6C363.555 389.218 367.083 383.154 371.214 377.508L371.977 376.464C377.301 369.188 383.585 362.666 390.657 357.074L401.5 348.5L416.971 339.419C421.981 336.479 427.237 333.98 432.68 331.952L439.901 329.263C446.614 326.761 453.577 324.989 460.669 323.976L463.965 323.505C468.649 322.836 473.375 322.5 478.107 322.5H484.598C491.183 322.5 497.752 323.15 504.21 324.442L517 327L531.5 331.5" stroke="#00349A" stroke-width="27" stroke-linecap="round"/>
<path id="digital5" d="M533 276V276C531.003 275.002 528.928 274.17 526.794 273.514L523.5 272.5L519.195 271.377C514.405 270.127 509.529 269.235 504.606 268.708L498 268H488.5H481" stroke="#00349A" stroke-width="27" stroke-linecap="round"/>
<path id="digital6" d="M425 276.5L404.5 284L398.863 286.255C394.294 288.082 389.866 290.245 385.615 292.725L380 296L363.5 308.5L346.5 324L332.5 340.5L320.5 358L310.5 377L306.132 386.9C304.047 391.626 302.332 396.507 301.001 401.498L297 416.5L293 439.5L292.327 446.452C291.777 452.14 291.715 457.865 292.142 463.564L293 475L297 499.5L303 520L309 539.5L319 562L329.5 585L339.5 606L351 626.5L363.5 648.5L376.5 668.5L392.5 693.5" stroke="#00349A" stroke-width="27" stroke-linecap="round"/>
<path id="digital7" d="M424 734.5L446 760.5L469 785.5L479.5 796L494 810.5L507.5 823.5L519.5 834L526.5 840" stroke="#00349A" stroke-width="27" stroke-linecap="round" stroke-linejoin="round"/>
<path id="digital8" d="M293 634L312 667L333.5 702L358 737.5L383 769.5L412.5 804.5L438.5 832L469 861.5L495 885.5L506 896L522.5 910.5" stroke="#00349A" stroke-width="27" stroke-linecap="round"/>
<path id="digital9" d="M532.5 222L519.5 217.5L510.5 215.5L499.5 214.5H481.5H458L438 216.5L420.5 220.5L399.5 228.5L378.5 236.5L359 246.5L332.991 264.381C329.002 267.123 325.218 270.152 321.668 273.442L306.5 287.5L288 308L274.5 328L268.242 338.24C265.087 343.403 262.407 348.841 260.236 354.488L253.5 372L245 404L241.471 421.294C240.492 426.092 239.866 430.954 239.599 435.844L238.5 456L239.22 475.808C239.406 480.928 239.988 486.025 240.946 491.059C242.595 499.729 244.5 509.895 244.5 510.5C244.5 511.3 247.833 524.5 249.5 531L255.5 549L263 567L271 588.5" stroke="#00349A" stroke-width="27" stroke-linecap="round"/>
<path id="digital10" d="M429 898L446 915L457 925.5L469.5 936.5" stroke="#00349A" stroke-width="27" stroke-linecap="round" stroke-linejoin="round"/>
<path id="digital11" d="M387.5 857L360 825.5L340 801.5L321 776.5L303.5 754L280 718L262 689L246 659.5L230 627L214 590.5L200.5 553L191.772 524.041C190.26 519.021 189.144 513.891 188.436 508.697L185 483.5V455V433.607C185 428.875 185.336 424.149 186.005 419.465L187 412.5" stroke="#00349A" stroke-width="27" stroke-linecap="round"/>
<path id="digital12" d="M200 362L210 336.5L224 310.5L239 286L260 259.5L284.5 235.5L311 214.5L337.218 196.897C343.056 192.977 349.292 189.683 355.822 187.071L383.5 176L416 167L450.398 161.676C455.459 160.893 460.572 160.5 465.692 160.5H488L500 161.5L514.5 163L535 167" stroke="#00349A" stroke-width="27" stroke-linecap="round"/>
<path id="digital13" d="M184 658L202.5 692.5L222.5 728L243.5 761.5L262 790L280 814.5L302 841L323.5 866.5L343.5 888L363.5 909.5L378.5 924.5" stroke="#00349A" stroke-width="27" stroke-linecap="round"/>
<path id="digital14" d="M204.5 241.5L218 224.5L238.5 204L260.5 184.5L282.5 167L292.5 160.5" stroke="#00349A" stroke-width="27" stroke-linecap="round"/>
<path id="digital15" d="M338 136L363.5 125L389 117.5L409.783 112.304C414.588 111.103 419.475 110.26 424.404 109.783L448 107.5L477.5 105.5H505.5L514.5 106.5L515.243 106.587C520.406 107.195 525.515 108.204 530.522 109.606L535.5 111" stroke="#00349A" stroke-width="27" stroke-linecap="round"/>
</g>
<g id="rede">
<path id="inicio" d="M550 501H608.5L673.5 412.5L591 327.5V153.5" stroke="#FF6100" stroke-width="15"/>
<path id="ball1" d="M590 154L591 153" stroke="#FF6100" stroke-width="67" stroke-linecap="round"/>
<path id="meio1" d="M609.5 502L668.5 558H764L830 635" stroke="#FF6100" stroke-width="15"/>
<path id="ball5" d="M839 644L840 643" stroke="#FF6100" stroke-width="67" stroke-linecap="round"/>
<path id="meio2" d="M553 597.5H607.5L671 662.5V773L589 862.5" stroke="#FF6100" stroke-width="15"/>
<path id="ball8" d="M586 869L587 868" stroke="#FF6100" stroke-width="67" stroke-linecap="round"/>
<path id="meio3" d="M591 327.5L708.5 227.5" stroke="#FF6100" stroke-width="15"/>
<path id="ball2" d="M701 229L702 228" stroke="#FF6100" stroke-width="67" stroke-linecap="round"/>
<path id="meio4" d="M672.5 412.5H796V348" stroke="#FF6100" stroke-width="15"/>
<path id="ball3" d="M796 337L797 336" stroke="#FF6100" stroke-width="67" stroke-linecap="round"/>
<path id="meio5" d="M796 412.5L849 465.5" stroke="#FF6100" stroke-width="15"/>
<path id="ball4" d="M860 475L861 474" stroke="#FF6100" stroke-width="67" stroke-linecap="round"/>
<path id="meio6" d="M671 662L751.5 751.5H843" stroke="#FF6100" stroke-width="15"/>
<path id="ball6" d="M842 751L843 750" stroke="#FF6100" stroke-width="67" stroke-linecap="round"/>
<path id="final" d="M671 772L760 863" stroke="#FF6100" stroke-width="15"/>
<path id="ball7" d="M764 866L765 865" stroke="#FF6100" stroke-width="67" stroke-linecap="round"/>
</g>
</g>
</svg>
